<?xml version="1.0" standalone="no"?>
<!DOCTYPE svg PUBLIC "-//W3C//DTD SVG 20010904//EN"
 "http://www.w3.org/TR/2001/REC-SVG-20010904/DTD/svg10.dtd">
<svg version="1.0" xmlns="http://www.w3.org/2000/svg"
 width="400.000000pt" height="400.000000pt" viewBox="0 0 400.000000 400.000000"
 preserveAspectRatio="xMidYMid meet">
<metadata>
Created by potrace 1.14, written by Peter Selinger 2001-2017
</metadata>
<g transform="translate(0.000000,400.000000) scale(0.100000,-0.100000)"
fill="#000000" stroke="none">
<path d="M1273 2656 c-73 -18 -156 -63 -195 -104 l-33 -35 45 25 c103 57 194
60 460 14 214 -37 293 -42 313 -21 29 28 15 65 -30 83 -92 37 -467 62 -560 38z"/>
<path d="M2455 2663 c-68 -8 -282 -46 -302 -54 -30 -11 -39 -46 -17 -70 25
-28 99 -25 294 13 128 24 193 32 290 32 116 1 129 -1 178 -25 l54 -27 -27 28
c-34 35 -114 75 -190 95 -54 14 -198 18 -280 8z"/>
<path d="M1298 2397 c-56 -16 -98 -42 -98 -61 0 -15 40 -67 75 -99 37 -33 124
-69 151 -63 19 5 24 3 18 -5 -17 -28 203 8 311 51 l30 12 -50 44 c-27 25 -87
64 -133 86 -76 38 -91 42 -170 45 -51 2 -106 -3 -134 -10z m117 -37 c-28 -31
-31 -102 -7 -145 19 -32 20 -35 4 -35 -53 1 -150 75 -171 132 -10 27 -9 28 42
42 57 16 89 23 126 25 23 1 24 0 6 -19z m175 -15 c20 -24 6 -28 -15 -5 -10 11
-13 20 -8 20 6 0 16 -7 23 -15z m84 -40 c29 -19 60 -43 70 -54 16 -18 14 -19
-66 -45 -46 -14 -86 -26 -90 -26 -4 0 2 16 13 35 15 25 20 48 17 80 -2 25 -2
45 0 45 2 0 27 -16 56 -35z"/>
<path d="M2455 2392 c-79 -30 -126 -56 -188 -108 -67 -54 -68 -52 48 -90 62
-20 102 -27 175 -28 89 -1 100 1 163 32 70 35 141 109 135 141 -2 9 -25 27
-53 41 -68 33 -206 39 -280 12z m190 -22 c64 -10 115 -28 115 -39 0 -4 -14
-28 -31 -54 -21 -31 -46 -54 -81 -71 -71 -36 -82 -34 -56 9 24 43 21 114 -7
145 -21 23 -20 23 60 10z m-71 -16 c15 -14 22 -44 12 -44 -3 0 -14 14 -26 30
-22 31 -13 41 14 14z m-192 -52 c-5 -60 19 -117 46 -107 13 5 14 3 5 -6 -9 -9
-24 -8 -65 1 -68 16 -128 40 -128 51 0 9 57 55 109 86 20 11 36 22 37 22 1 1
-1 -21 -4 -47z"/>
<path d="M2552 947 l-42 -43 0 -86 0 -86 -39 -34 c-22 -18 -86 -61 -144 -95
-168 -101 -224 -172 -266 -341 -21 -82 -46 -250 -39 -258 3 -2 440 -3 973 -2
l968 3 -50 65 c-128 168 -288 248 -649 324 -275 59 -314 69 -314 79 0 6 -40
51 -88 101 -104 107 -134 155 -157 252 -20 85 -44 128 -83 148 -28 15 -30 14
-70 -27z"/>
<path d="M1341 945 c-31 -28 -48 -59 -81 -143 -53 -136 -96 -201 -165 -252
-46 -34 -56 -47 -61 -80 -4 -22 -9 -40 -11 -40 -25 0 -523 -84 -568 -95 -173
-45 -354 -177 -421 -307 l-15 -28 977 0 976 0 -7 68 c-18 172 -60 328 -108
397 -25 37 -61 66 -167 131 -187 117 -191 121 -199 227 -6 81 -9 89 -41 122
-19 19 -42 35 -52 35 -10 0 -36 -16 -57 -35z"/>
</g>
</svg>
